<?xml version="1.0" encoding="utf-8"?>
<!-- Generator: Adobe Illustrator 18.0.0, SVG Export Plug-In . SVG Version: 6.00 Build 0)  -->
<!DOCTYPE svg PUBLIC "-//W3C//DTD SVG 1.1//EN" "http://www.w3.org/Graphics/SVG/1.1/DTD/svg11.dtd">
<svg version="1.1" id="Layer_1" xmlns="http://www.w3.org/2000/svg" xmlns:xlink="http://www.w3.org/1999/xlink" x="0px" y="0px"
	 viewBox="0 0 2000 900" enable-background="new 0 0 2000 900" xml:space="preserve">
<linearGradient id="SVGID_1_" gradientUnits="userSpaceOnUse" x1="-4.2414" y1="450.384" x2="2001" y2="450.384">
	<stop  offset="0.5812" style="stop-color:#FFFFFF"/>
	<stop  offset="1" style="stop-color:#E6E7E8"/>
</linearGradient>
<rect x="-4.2" y="-3" fill="url(#SVGID_1_)" width="2005.2" height="906.8"/>
<linearGradient id="SVGID_2_" gradientUnits="userSpaceOnUse" x1="-282.2825" y1="450.384" x2="834.9343" y2="450.384">
	<stop  offset="0.267" style="stop-color:#ED1C24"/>
	<stop  offset="0.7644" style="stop-color:#A4181D"/>
</linearGradient>
<path fill="url(#SVGID_2_)" d="M834.9,450.4c0-136.5-48.9-261.5-130.2-358.5C674.8,56.1,640.5,24.3,602.6-3H-3v906.8h605.7
	C743.3,802.3,834.9,637.1,834.9,450.4z"/>
<g>
	<linearGradient id="SVGID_3_" gradientUnits="userSpaceOnUse" x1="159.8661" y1="464.1379" x2="630.8865" y2="464.1379">
		<stop  offset="0" style="stop-color:#FFFFFF"/>
		<stop  offset="1" style="stop-color:#E6E7E8"/>
	</linearGradient>
	<path fill="url(#SVGID_3_)" d="M424.8,316.5l117.7,118.1l-39.4,139.8c-4.7,16.6-21.7,34.5-38,39.9l-257.4,86.1l-13.5-13.6
		l138.1-138.5c5.8,2.8,12.1,4.5,19,4.5c24.4,0,44.2-19.8,44.2-44.3c0-24.5-19.9-44.3-44.2-44.3c-24.4,0-44.2,19.8-44.2,44.3
		c0,6.8,1.7,13.2,4.5,19L173.5,666l-13.6-13.6l85.8-258.3c5.4-16.4,23.2-33.5,39.8-38.2L424.8,316.5z M617.9,359.1l-52,52.2
		L448.2,293l52-52.2c17.3-17.3,45.2-17.3,62.4,0l55.3,55.5C635.2,313.7,635.2,341.7,617.9,359.1z"/>
</g>
</svg>
