<?xml version="1.0" encoding="utf-8"?>
<!-- Generator: Adobe Illustrator 18.0.0, SVG Export Plug-In . SVG Version: 6.00 Build 0)  -->
<!DOCTYPE svg PUBLIC "-//W3C//DTD SVG 1.1//EN" "http://www.w3.org/Graphics/SVG/1.1/DTD/svg11.dtd">
<svg version="1.1" id="Layer_1" xmlns="http://www.w3.org/2000/svg" xmlns:xlink="http://www.w3.org/1999/xlink" x="0px" y="0px"
	 viewBox="0 0 2000 900" enable-background="new 0 0 2000 900" xml:space="preserve">
<g>
	
		<linearGradient id="SVGID_1_" gradientUnits="userSpaceOnUse" x1="-275.2083" y1="585.3334" x2="3073.8748" y2="585.3334" gradientTransform="matrix(0.6 0 0 0.6 160.4 98.8)">
		<stop  offset="0.5812" style="stop-color:#FFFFFF"/>
		<stop  offset="1" style="stop-color:#E6E7E8"/>
	</linearGradient>
	<rect x="-4.7" y="-4.4" fill="url(#SVGID_1_)" width="2009.4" height="908.8"/>
	
		<linearGradient id="SVGID_2_" gradientUnits="userSpaceOnUse" x1="-739.7248" y1="585.3334" x2="1126.2808" y2="585.3334" gradientTransform="matrix(0.6 0 0 0.6 160.4 98.8)">
		<stop  offset="0.267" style="stop-color:#ED1C24"/>
		<stop  offset="0.7644" style="stop-color:#A4181D"/>
	</linearGradient>
	<path fill="url(#SVGID_2_)" d="M836.1,449.9c0-136.8-48.9-262.1-130.4-359.3c-29.9-35.9-64.3-67.8-102.4-95H-3.6v908.8h607
		C744.4,802.7,836.1,637.1,836.1,449.9z"/>
	
		<linearGradient id="SVGID_3_" gradientUnits="userSpaceOnUse" x1="193.0895" y1="677.119" x2="924.0636" y2="319.6743" gradientTransform="matrix(0.9409 -0.3387 -0.3387 -0.9409 172.3608 1129.8912)">
		<stop  offset="0" style="stop-color:#FFFFFF"/>
		<stop  offset="1" style="stop-color:#E6E7E8"/>
	</linearGradient>
	<path fill="url(#SVGID_3_)" d="M376.4,387.2l-7.2-19.9c-7.8-21.6,3.4-45.6,25.1-53.4c36-13,54.8-52.8,41.8-89L423.8,191l-26.2,9.4
		l12.2,33.8c7.8,21.6-3.4,45.6-25.1,53.4c-36,13-54.8,52.8-41.8,89l7.2,19.9l-209.9,75.5L225,707.6L671,547l-84.8-235.3L376.4,387.2
		z M266.5,574.6l-26.2,9.4l-9.4-26.2l26.2-9.4L266.5,574.6z M212.2,505.5l26.2-9.4l9.4,26.2l-26.2,9.4L212.2,505.5z M285.3,626.9
		l-26.2,9.4l-9.4-26.2l26.2-9.4L285.3,626.9z M318.9,555.6l-26.2,9.4l-9.4-26.2l26.2-9.4L318.9,555.6z M264.3,486.7l26.2-9.4
		l9.4,26.2l-26.2,9.4L264.3,486.7z M337.7,607.9l-26.2,9.4l-9.4-26.2l26.2-9.4L337.7,607.9z M371.2,536.8l-26.2,9.4l-9.4-26.2
		l26.2-9.4L371.2,536.8z M316.7,467.9l26.2-9.4l9.4,26.2l-26.2,9.4L316.7,467.9z M494.6,551.5l-130.8,47l-9.4-26.2l130.8-47
		L494.6,551.5z M423.5,518l-26.2,9.4l-9.4-26.2l26.2-9.4L423.5,518z M369,448.9l26.2-9.4l9.4,26.2l-26.2,9.4L369,448.9z
		 M475.7,499.2l-26.2,9.4l-9.4-26.2l26.2-9.4L475.7,499.2z M421.3,430.1l26.2-9.4l9.4,26.2l-26.2,9.4L421.3,430.1z M528,480.4
		l-26.2,9.4l-9.4-26.2l26.2-9.4L528,480.4z M473.6,411.3l26.2-9.4l9.4,26.2l-26.2,9.4L473.6,411.3z M599.1,513.8L520.6,542
		l-9.4-26.2l78.5-28.2L599.1,513.8z M580.3,461.4l-26.2,9.4l-9.4-26.2l26.2-9.4L580.3,461.4z M526,392.5l26.2-9.4l9.4,26.2
		l-26.2,9.4L526,392.5z"/>
</g>
</svg>
