<?xml version="1.0" encoding="utf-8"?>
<!-- Generator: Adobe Illustrator 18.0.0, SVG Export Plug-In . SVG Version: 6.00 Build 0)  -->
<!DOCTYPE svg PUBLIC "-//W3C//DTD SVG 1.1//EN" "http://www.w3.org/Graphics/SVG/1.1/DTD/svg11.dtd">
<svg version="1.1" id="Layer_1" xmlns="http://www.w3.org/2000/svg" xmlns:xlink="http://www.w3.org/1999/xlink" x="0px" y="0px"
	 viewBox="0 0 2000 600" enable-background="new 0 0 2000 600" xml:space="preserve">
<g>
	<g>
		<polygon fill="#FFFFFF" points="950.3,56.2 724.3,145.9 724.3,446.2 756.7,463.6 789.6,446.2 789.6,138.7 950.3,72.2 		"/>
		<polygon fill="#FFFFFF" points="1015.1,113 1015.1,91.6 950.3,56.2 950.3,65.7 950.3,113 982.7,131 		"/>
	</g>
	<g>
		<polygon fill="#FFFFFF" points="1346.6,55.9 1120.6,145.6 1120.6,446 1153,463.4 1185.8,446 1185.8,138.5 1346.6,71.9 		"/>
		<polygon fill="#FFFFFF" points="1411.4,112.8 1411.4,91.4 1346.6,55.9 1346.6,65.5 1346.6,112.8 1379,130.7 		"/>
	</g>
	<polygon fill="#FFFFFF" points="984.9,229.2 984.9,342.1 952.1,359.6 919.7,342.1 919.7,253.7 891,269 891,379.5 858.6,396.9 
		826.2,379.5 826.2,279.4 891,243.7 891,244.1 952.1,210 	"/>
	<polygon fill="#FFFFFF" points="1078.7,228.3 1078.7,336.7 1013.9,336.7 1013.9,228.3 1046.3,210 	"/>
	<polygon fill="#FFFFFF" points="1014,446 1046.4,463.4 1078.8,446 1078.8,336.7 1014,336.7 	"/>
	<polygon fill="#FFFFFF" points="1078.8,145.3 1046.4,127.9 1014,145.3 1014,254.5 1078.8,254.5 	"/>
	<rect x="697.1" y="147.8" fill="#FFFFFF" width="466.6" height="22.7"/>
	<rect x="1460.4" y="147.8" fill="#FFFFFF" width="540.7" height="22.4"/>
	<polygon fill="#FFFFFF" points="1078.7,283.1 1078.7,296 1072.9,306 1013.9,271.9 984.9,254.9 940.8,229.6 952.1,210 984.9,229.2 
		1013.9,245.8 	"/>
	<g>
		<path fill="#FFFFFF" d="M1433.8,147.8h-166.1l-43.6,78.9l43.6,112.5h47.3l71.4-127.1h73.9v-15.8L1433.8,147.8z M1315,274h-56.9
			l-16.2-61.9h113L1315,274z"/>
		<g>
			<path fill="#FFFFFF" d="M1428,128.2l-32.4,17.9v299.8l32.4,17.4l32.4-17.4V146.1L1428,128.2z"/>
		</g>
	</g>
	<g>
		<polygon fill="#FFFFFF" points="1972.2,146.8 1939.8,129.4 1907.4,146.8 1907.4,256 1972.2,256 		"/>
		<g>
			<polygon fill="#FFFFFF" points="1868.3,480.3 1868.3,526.6 1836,544.1 1803.6,526.6 1803.6,480.3 1836,462.9 			"/>
			<g>
				<path fill="#FFFFFF" d="M1892.7,192.3l23.4,13l23.4-13l32.9,17.4l0.3,238.1l-32.9,17.4l-23.4-13l-23.4,13l-128.7-43.1
					l-0.3-186.3L1892.7,192.3z M1829,422.4l78.4,25.4l-0.3-238.1l-78.4,25.7L1829,422.4z"/>
			</g>
		</g>
	</g>
	<polygon fill="#FFFFFF" points="1715,146.9 1715,328.8 1650.2,328.8 1650.2,146.9 1682.6,129.5 	"/>
	<polygon fill="#FFFFFF" points="1636.5,289.4 1636.5,309.7 1630.3,312.2 1615.7,317.6 1602,322.2 1571.7,332.1 1571.7,259.1 
		1590.4,268.2 1621.9,283.1 1624.4,284 1633.6,288.1 	"/>
	<polygon fill="#FFFFFF" points="1630.3,312.2 1615.7,317.6 1602,322.2 1571.7,332.1 1571.7,285.6 1602,299.8 1603.3,300.2 
		1605.8,301.4 	"/>
	<g>
		<path fill="#FFFFFF" d="M1715.4,306.4l-0.4-0.4l-32.4-16.6l-15.4,8.3l-17-7.5v5.4l0.8,0.4l-0.8,0.4V448l-78.1-25.8l-0.4-45.3
			v-44.9l30.3-10l13.7-4.6l14.5-5.4l6.2-2.5v-20.3l-2.9-1.2l-27.8,10.4l-3.7,1.2l-26.2,9.6h-0.4l-1.2,0.4l-2.5,0.8l-64.8,22
			l0.4,89.7l128.7,43.2l23.3-13.3l23.3,13.3l33.2-17.4L1715.4,306.4z M1663.1,299.8l-4.2,2.5l-0.8-0.4L1663.1,299.8z"/>
	</g>
	<g>
		<path fill="#FFFFFF" d="M1633.6,288.1l-9.1-4.2l-2.5-0.8l-31.6-15l-18.7-9.1v-90.6l-64.8,32.4v49.9l53.2,25.7l11.6,5.4l18.7,9.1
			l2.5,1.2l1.2,1.2h0.4l11.2,5l15,6.2l13.7-4.2l2.1-0.4v-10.8L1633.6,288.1z"/>
	</g>
</g>
<path fill="#FFFFFF" d="M1,17.6v564.8h528.8V17.6H1z M467.8,518.4h-55l-13.5-75.3V274.5l-51.4,16.6V348h-65.4v-73.5l-48.3,16.1
	v167.3h48.5l0-57.8h65.6L348,518.4H234.2h-69h-0.3l0.3-60.5h0V251.1l69-23.9l62.3-21.3h51.4v21.8l66.4-21.8h53.5V518.4z
	 M467.8,181.9h-64.4v-36.5l-187.8,12.5l-79.9,25.3v335.3H63.1L63.5,206l-0.5,0.2v-72.7L243.2,81h224.6V181.9z"/>
</svg>
