<?xml version="1.0" encoding="utf-8"?>
<!-- Generator: Adobe Illustrator 18.0.0, SVG Export Plug-In . SVG Version: 6.00 Build 0)  -->
<!DOCTYPE svg PUBLIC "-//W3C//DTD SVG 1.1//EN" "http://www.w3.org/Graphics/SVG/1.1/DTD/svg11.dtd">
<svg version="1.1" id="Layer_1" xmlns="http://www.w3.org/2000/svg" xmlns:xlink="http://www.w3.org/1999/xlink" x="0px" y="0px"
	 viewBox="0 0 2000 900" enable-background="new 0 0 2000 900" xml:space="preserve">
<linearGradient id="SVGID_1_" gradientUnits="userSpaceOnUse" x1="-4.2" y1="449.6" x2="2001" y2="449.6" gradientTransform="matrix(1 0 0 -1 0 900)">
	<stop  offset="0.5812" style="stop-color:#FFFFFF"/>
	<stop  offset="1" style="stop-color:#E6E7E8"/>
</linearGradient>
<rect x="-4.2" y="-3" fill="url(#SVGID_1_)" width="2005.2" height="906.8"/>
<linearGradient id="SVGID_2_" gradientUnits="userSpaceOnUse" x1="-282.2825" y1="449.6" x2="834.9343" y2="449.6" gradientTransform="matrix(1 0 0 -1 0 900)">
	<stop  offset="0.267" style="stop-color:#ED1C24"/>
	<stop  offset="0.7644" style="stop-color:#A4181D"/>
</linearGradient>
<path fill="url(#SVGID_2_)" d="M834.9,450.4c0-136.5-48.9-261.5-130.2-358.5C674.8,56.1,640.5,24.3,602.6-3H-3v906.8h605.7
	C743.3,802.3,834.9,637.1,834.9,450.4z"/>
<g>
	<g>
		<linearGradient id="SVGID_3_" gradientUnits="userSpaceOnUse" x1="137.2886" y1="212.0459" x2="698.3056" y2="632.3849">
			<stop  offset="0" style="stop-color:#FFFFFF"/>
			<stop  offset="1" style="stop-color:#E6E7E8"/>
		</linearGradient>
		<path fill="url(#SVGID_3_)" d="M337.4,432.1c-16.1-16.1-16.1-42.3,0-58.4c21.5-21.5,56.3-21.5,77.8,0c28.1,28.1,28.1,73.9,0,102
			c-17.7,17.7-41.1,27.4-66.2,27.4s-48.5-9.7-66.2-27.4c-46.9-46.9-46.9-123.2,0-170.2c59.9-59.9,157.5-59.9,217.4,0
			c37,37,57.3,86.1,57.3,138.3s-20.3,101.4-57.3,138.3c-15.8,15.8-33.4,29.3-52.5,40.1l-7,3.9c-28.9,14.2-60.1,21.3-92.6,21.3
			c-116.4,0-211-94.6-211-211c0-109.5,83.8-199.8,190.7-210.1h268.8v422c-13.2-11-34.9-27.7-70.3-54.3
			c37.7-41.1,58.3-94.1,58.3-150.2c0-59.5-23.2-115.4-65.2-157.5c-70.6-70.6-185.3-70.6-255.8,0c-57.5,57.5-57.5,151,0,208.5
			c22.8,22.8,53.1,35.3,85.3,35.3s62.5-12.6,85.3-35.3c38.7-38.7,38.7-101.7,0-140.4c-32-32-84.1-32-116.1,0
			c-12.9,12.9-20,30.1-20,48.4s7.1,35.4,20,48.4L337.4,432.1z"/>
		<linearGradient id="SVGID_4_" gradientUnits="userSpaceOnUse" x1="38.246" y1="344.2359" x2="599.263" y2="764.5748">
			<stop  offset="0" style="stop-color:#FFFFFF"/>
			<stop  offset="1" style="stop-color:#E6E7E8"/>
		</linearGradient>
		<path fill="url(#SVGID_4_)" d="M461.2,646l-7.4,4.1c-0.2,0.1-0.3,0.2-0.5,0.3c-26.8,13.2-55.2,21-84.9,23.4h216.4
			c-14.9-12.5-46.8-37.1-77.8-60.4C492.7,625.7,477.4,636.7,461.2,646z"/>
		<linearGradient id="SVGID_5_" gradientUnits="userSpaceOnUse" x1="123.8229" y1="230.0183" x2="684.8398" y2="650.3573">
			<stop  offset="0" style="stop-color:#FFFFFF"/>
			<stop  offset="1" style="stop-color:#E6E7E8"/>
		</linearGradient>
		<path fill="url(#SVGID_5_)" d="M236.1,226.4h-99.4v101C158.9,284.5,193.7,249.2,236.1,226.4z"/>
		<linearGradient id="SVGID_6_" gradientUnits="userSpaceOnUse" x1="-50.0274" y1="462.0524" x2="510.9896" y2="882.3914">
			<stop  offset="0" style="stop-color:#FFFFFF"/>
			<stop  offset="1" style="stop-color:#E6E7E8"/>
		</linearGradient>
		<path fill="url(#SVGID_6_)" d="M136.7,545.5v128.2h191.5C244.7,666.7,173.4,616.4,136.7,545.5z"/>
		<linearGradient id="SVGID_7_" gradientUnits="userSpaceOnUse" x1="203.6439" y1="123.4831" x2="764.6608" y2="543.8221">
			<stop  offset="0" style="stop-color:#FFFFFF"/>
			<stop  offset="1" style="stop-color:#E6E7E8"/>
		</linearGradient>
		<rect x="624.9" y="226.4" fill="url(#SVGID_7_)" width="29.2" height="447.3"/>
	</g>
</g>
</svg>
