<?xml version="1.0" encoding="utf-8"?>
<!-- Generator: Adobe Illustrator 18.0.0, SVG Export Plug-In . SVG Version: 6.00 Build 0)  -->
<!DOCTYPE svg PUBLIC "-//W3C//DTD SVG 1.1//EN" "http://www.w3.org/Graphics/SVG/1.1/DTD/svg11.dtd">
<svg version="1.1" id="Layer_1" xmlns="http://www.w3.org/2000/svg" xmlns:xlink="http://www.w3.org/1999/xlink" x="0px" y="0px"
	 viewBox="0 0 2000 900" enable-background="new 0 0 2000 900" xml:space="preserve">
<linearGradient id="SVGID_1_" gradientUnits="userSpaceOnUse" x1="-4.2" y1="449.6" x2="2001" y2="449.6" gradientTransform="matrix(1 0 0 -1 0 900)">
	<stop  offset="0.5812" style="stop-color:#FFFFFF"/>
	<stop  offset="1" style="stop-color:#E6E7E8"/>
</linearGradient>
<rect x="-4.2" y="-3" fill="url(#SVGID_1_)" width="2005.2" height="906.8"/>
<linearGradient id="SVGID_2_" gradientUnits="userSpaceOnUse" x1="-282.2825" y1="449.6" x2="834.9343" y2="449.6" gradientTransform="matrix(1 0 0 -1 0 900)">
	<stop  offset="0.267" style="stop-color:#ED1C24"/>
	<stop  offset="0.7644" style="stop-color:#A4181D"/>
</linearGradient>
<path fill="url(#SVGID_2_)" d="M834.9,450.4c0-136.5-48.9-261.5-130.2-358.5C674.8,56.1,640.5,24.3,602.6-3H-3v906.8h605.7
	C743.3,802.3,834.9,637.1,834.9,450.4z"/>
<g>
	<g>
		<linearGradient id="SVGID_3_" gradientUnits="userSpaceOnUse" x1="158.9551" y1="443.3559" x2="628.0739" y2="443.3559">
			<stop  offset="0" style="stop-color:#FFFFFF"/>
			<stop  offset="1" style="stop-color:#E6E7E8"/>
		</linearGradient>
		<path fill="url(#SVGID_3_)" d="M487.1,499.4c-5.1,21.3-13.3,37.9-24.4,49.9c-11.1,12-23.3,21.1-36.5,27.3
			c-13.2,6.2-26.3,10-39.3,11.6c-13,1.5-24,2.3-32.9,2.3h-4.6c-1.7,0-3.1-0.2-4.1-0.5h-2.1c-17.2,0-32.6-2.7-46.3-8
			c-13.7-5.3-25.7-12.3-36-20.8c-10.3-8.6-19.2-18.1-26.7-28.5c-7.5-10.5-13.8-20.8-18.8-31.1c-5-10.3-8.8-20-11.6-29.1
			c-2.7-9.1-4.6-16.4-5.7-21.9l-2.1-12.3l72.5-79.7c-0.3,2.4-0.6,4.7-0.8,6.9c-0.2,2.2-0.3,4.5-0.3,6.9v13.4c0,28.1,3.3,51,10,68.7
			c6.7,17.7,15,31.6,24.9,41.7c9.9,10.1,20.5,17,31.6,20.6c11.1,3.6,21.3,5.4,30.6,5.4c12,0,22.1-2.1,30.3-6.4
			c8.2-4.3,15-9.4,20.3-15.4c5.3-6,9.3-12.1,12.1-18.3c2.7-6.2,4.5-11.3,5.1-15.4c0.7-3.4,1-6.6,1-9.5c0-2.9,0.2-5.7,0.5-8.5
			c0-7.9-0.9-14.7-2.6-20.6c-1.7-5.8-3.7-10.6-5.9-14.4c-2.2-3.8-4.4-6.5-6.4-8.2c-2.1-1.7-3.4-2.6-4.1-2.6l-0.5,0.5
			c2.7,9.3,4.1,16.6,4.1,22.1c0,11.3-4,20.7-12.1,28c-8.1,7.4-18.6,11.1-31.6,11.1c-16.5,0-29-4.5-37.6-13.4
			c-8.6-8.9-12.9-23.8-12.9-44.8c0-18.5,3.9-33.8,11.6-45.8c7.7-12,18.8-19.7,33.2-23.1H178.5L159,307.6h366.8v-15.4l53-31.4v46.8
			h28.8l20.6,29.8h-49.4v261.8l-53,26.7v-92.1L487.1,499.4z M406.9,337.4l12.3,3.1c9.6,3.1,18.9,8,28,14.7
			c9.1,6.7,17.1,14.9,23.9,24.7c6.9,9.8,12.3,21.1,16.5,33.9c4.1,12.9,6.2,27.2,6.2,43l31.9,29.3V337.4H406.9z"/>
	</g>
</g>
</svg>
