<?xml version="1.0" encoding="utf-8"?>
<!-- Generator: Adobe Illustrator 18.0.0, SVG Export Plug-In . SVG Version: 6.00 Build 0)  -->
<!DOCTYPE svg PUBLIC "-//W3C//DTD SVG 1.1//EN" "http://www.w3.org/Graphics/SVG/1.1/DTD/svg11.dtd">
<svg version="1.1" id="Layer_1" xmlns="http://www.w3.org/2000/svg" xmlns:xlink="http://www.w3.org/1999/xlink" x="0px" y="0px"
	 viewBox="0 0 2000 1000" enable-background="new 0 0 2000 1000" xml:space="preserve">
<linearGradient id="SVGID_1_" gradientUnits="userSpaceOnUse" x1="969.3" y1="500" x2="2000" y2="500" gradientTransform="matrix(1 0 0 -1 0 1000)">
	<stop  offset="0" style="stop-color:#ED1C24"/>
	<stop  offset="1" style="stop-color:#BE202E"/>
</linearGradient>
<rect x="969.3" y="0.5" fill="url(#SVGID_1_)" width="1030.7" height="999"/>
<path fill="none" d="M499.7,1015.6c19.2,3.8,35-1.4,47.4-15.6h-78.8C476.6,1007.9,487,1013.1,499.7,1015.6z"/>
<path fill="#860B17" d="M303.5,0h-6.8c0.4,0.3,0.8,0.7,1.3,1L303.5,0z"/>
<polygon points="-5.7,57.6 0,59.8 0,56.5 "/>
<linearGradient id="SVGID_2_" gradientUnits="userSpaceOnUse" x1="-66.0252" y1="90.4433" x2="1171.4463" y2="746.4327">
	<stop  offset="0" style="stop-color:#ED1C24"/>
	<stop  offset="1" style="stop-color:#980B17"/>
</linearGradient>
<path fill="url(#SVGID_2_)" d="M1429.5-10.4H-8v1025.3h981.5C1243.5,753.5,1415.6,391.6,1429.5-10.4z"/>
<g>
	<linearGradient id="SVGID_3_" gradientUnits="userSpaceOnUse" x1="-10.2932" y1="287.157" x2="698.2765" y2="287.157">
		<stop  offset="0" style="stop-color:#FFFFFF"/>
		<stop  offset="1" style="stop-color:#BCBEC0"/>
	</linearGradient>
	<path fill="url(#SVGID_3_)" d="M370,530.3l-3.8,35.9l174.7,18.5l5-47.6c3.7-34.9-21.4-67.1-77-97.5
		c69.3-24.1,105.2-56.6,109.5-97.4l12.2-114.5c4-37.9-18.3-58.9-66.8-64l-97.1-10.3l6.2-58.2C320.2,83.3,248.5,56,219.4,15.6
		l440.7,46.8l7.7-72.8H-8v1.9l28.4,3L-3.7,221.7c-5.5,51.4,19.9,80.6,79,87.9L285,331.8c74.3,3,116.2-22,123.8-75.2l36.9,3.9
		l-0.3,11.8c-1.2,11.6-3.2,21.3-6.8,26.8c-30.9,59.6-76.9,86.1-139,79.5L-8,345.9v118.8l311.7,33.1
		C349.3,502.6,371.7,513.8,370,530.3z M243.7,221.4c-1.8,16.5-9.5,24.5-20.2,23.4l-17.5-1.9c-21.4-2.3-31.3-10.2-30.8-23.9
		l15.3-144.6c18.8,16.7,39.7,32.7,63.5,49L243.7,221.4z"/>
	<linearGradient id="SVGID_4_" gradientUnits="userSpaceOnUse" x1="89.6039" y1="657.5056" x2="368.0918" y2="1036.9454">
		<stop  offset="0" style="stop-color:#FFFFFF"/>
		<stop  offset="1" style="stop-color:#BCBEC0"/>
	</linearGradient>
	<path fill="url(#SVGID_4_)" d="M18.2,921.2c8.8-0.3,19.5-0.6,32-1.2c12.5-0.5,26.4-0.2,41.9,0.9c15.4,1.1,32,5.1,49.8,12
		c15.7,6.5,30,16.1,43,28.8l11.2,40l84.1,8.3l-65-231.5c19.3-3.4,33.3-3.8,41.7-0.9c8.5,2.8,13.7,5.9,15.6,9.4l2.2,2.4l10.5,32
		c0.9,6.7-1.4,10.8-6.9,12.4c-2.8,0.8-4.4,1-5,0.7l-21.3-4.4l3.8,19c2.4,10.2,9.1,16.5,20.2,18.9l58.4,6.7c4.5,0.2,8.6-0.2,12.3-1.2
		c8.7-2.4,15.4-7.4,20-14.9c4.6-7.5,5.6-15.8,3-25l-16.3-57.9c-3.2-11.5-8.8-21.3-16.8-29.5c-8-8.2-17.1-15-27.3-20.6
		c-10.2-5.5-21.2-9.9-33-13c-11.8-3.1-22.9-5.3-33.4-6.6c-10.5-1.3-20.1-1.8-28.7-1.6c-8.6,0.2-15,0.9-19.1,2l-5.8-20.7l169.5-47.6
		l-50.8-40.7L-8,685.8v55l121.4-34.1l6.8,24.1l-7.9,3.7c-10.5,4.9-22.3,10.6-35.4,17c-13.1,6.4-26.8,13.6-41.1,21.6
		c-14.3,8-28.9,16.6-43.8,26v111.7l6.2,5.2C2.7,919.7,9.4,921.4,18.2,921.2z M49.5,857.8c10.7-7.9,24-17.2,40.2-27.6
		c16.1-10.5,33.1-19.4,50.8-26.9l29.2,104l-8.1-5.1c-7.2-4.4-15.4-8.6-24.7-12.4c-9.3-3.8-19.4-7.7-30.4-11.5
		c-11-3.8-22.3-6.6-33.9-8.3c-11.6-1.7-23.6-2.5-36-2.5L49.5,857.8z"/>
	<linearGradient id="SVGID_5_" gradientUnits="userSpaceOnUse" x1="-269.8304" y1="474.9055" x2="967.6411" y2="1130.8949">
		<stop  offset="0" style="stop-color:#ED1C24"/>
		<stop  offset="1" style="stop-color:#860B17"/>
	</linearGradient>
	<path fill="url(#SVGID_5_)" d="M648.6,1013.9c-22.7-17.3-35.9-40.2-39.7-68.5l-15.4-115l-71.8,9.6l15.4,115
		c2.9,21.9,9.2,41.8,18.9,59.9h93.8C649.4,1014.5,649,1014.2,648.6,1013.9z"/>
	<g>
		<linearGradient id="SVGID_6_" gradientUnits="userSpaceOnUse" x1="556.6442" y1="567.0577" x2="1238.6115" y2="1016.238">
			<stop  offset="0" style="stop-color:#FFFFFF"/>
			<stop  offset="1" style="stop-color:#BCBEC0"/>
		</linearGradient>
		<path fill="url(#SVGID_6_)" d="M989.7,720.9c-38.1,5.1-70.2,0.9-96.3-12.5c-8-3.9-14.7-8-20.3-12.2l190.4-25.4l-9.6-71.8
			l-598.4,79.9l9.6,71.8L672.4,723c-15.8,30.4-21.3,63.5-16.6,99.1l3.7,27.8c4.1,30.8,18.3,55.6,42.7,74.4
			c24.4,18.9,52,26.2,82.7,22.1l2.2-0.3l8.7-1.9c13.6-2.3,25.8-6.2,36.5-11.6c-0.1,21.4-7.2,41.2-21.1,59.5
			c-6.9,9.1-14.8,16.6-23.4,22.6h94.9c19-33.1,26-69.3,20.7-108.7L891,813.8l-71.8,9.6l0.7,5.1c1.4,10.7-1.1,20.5-7.6,29.3
			c-6.5,8.8-15.2,14-25.9,15.4l-11,1.5c-10.7,1.4-20.5-1.2-29.4-8c-8.9-6.8-14-15.5-15.4-26.3l-3.7-27.8c-3.5-26.4,3-50.1,19.6-71.2
			c11.8-15.5,26.6-26.2,44.2-32c12.7,24.2,35.1,45,67.2,62.6c31.3,15.2,66.4,22.7,105.1,22.5l27.2,203.9
			c21.8-21.8,42.9-44.2,63.3-67.2l-28.7-215L989.7,720.9z"/>
		<linearGradient id="SVGID_7_" gradientUnits="userSpaceOnUse" x1="398.7892" y1="806.7208" x2="1080.7565" y2="1255.9011">
			<stop  offset="0" style="stop-color:#FFFFFF"/>
			<stop  offset="1" style="stop-color:#BCBEC0"/>
		</linearGradient>
		<path fill="url(#SVGID_7_)" d="M648.6,1013.9c-22.7-17.3-35.9-40.2-39.7-68.5l-15.4-115l-71.8,9.6l15.4,115
			c2.9,21.9,9.2,41.8,18.9,59.9h93.8C649.4,1014.5,649,1014.2,648.6,1013.9z"/>
	</g>
</g>
<g>
	<linearGradient id="SVGID_8_" gradientUnits="userSpaceOnUse" x1="690.5226" y1="269.5087" x2="1433.8365" y2="269.5087">
		<stop  offset="0" style="stop-color:#FFFFFF"/>
		<stop  offset="1" style="stop-color:#BCBEC0"/>
	</linearGradient>
	<path fill="url(#SVGID_8_)" d="M1391,90.9l0.9-13.2l32.3-3.3c1.3-14.7,2.4-29.4,3.4-44.1l-27,2.7l-0.3-3.2
		c-3.7-7.6-10.5-13.7-20.5-18.2c-9.9-4.5-19.6-6.2-29-5.3c-7.2,0.7-12.4,3.5-15.6,8.1c-3.2,4.7-5.5,10.4-7,17.1l-3.5,9.1L728.5,101
		c-2.2,0.2-4.4,0.3-6.6,0.1c-2.2-0.1-4.4-0.1-6.6,0.1c-11.6,1.2-18.8,3.9-21.6,8.2c-2.9,4.3-3.8,10.8-3,19.5c0.1,1.5,0.5,3.1,1,4.8
		c0.6,1.8,0.9,3.4,1,4.8l1,9.8l613.5-62.1c-30.5,88.5-44.3,178.6-41.6,270.3c-13-5.3-25.8-9.4-38.5-12.5c0.3-3.7,0.3-7.5-0.1-11.5
		c-0.4-4-0.8-8.1-1.3-12.5c-2.4-23.8-8.8-47.3-19.2-70.3c-10.4-23-23.6-43.6-39.6-61.7c-16.1-18.1-34.8-32.1-56.3-41.9
		c-21.4-9.9-44.4-13.6-69-11.1c-21,2.1-39.6,7.7-55.8,16.6c-16.2,8.9-29.9,20.4-40.9,34.2c-11,13.9-19.3,29.5-24.8,46.9
		c-5.5,17.4-8.1,35.9-7.5,55.5c1.5,15.2,5.6,30.1,12.2,44.8c6.6,14.7,15.4,27.3,26.3,37.9c10.9,10.6,23.4,18.8,37.5,24.7
		c14.1,5.9,29.4,8,46.1,6.3c13-1.3,25.5-6,37.4-14.2c11.9-8.1,17-21.2,15.2-39.3c-1.8-17.3-9.8-31.9-24.1-43.5l-6-4.9
		c-2.2,0.2-6.1-1.2-11.9-4.3c-5.8-3.1-8.8-5.3-8.9-6.8l-3.9-6.2c-0.8-0.6-1.3-2.1-1.5-4.2c-0.5-5,2.1-9.9,7.8-14.5
		c5.7-4.6,11.5-7.2,17.3-7.8c6.5-0.7,13,2.2,19.5,8.4c6.5,6.3,11.9,13.6,16.4,21.9c4.5,8.3,8.3,16.9,11.4,25.7
		c3.1,8.8,4.8,15.4,5.3,19.7c2.8,27.5-4.7,50.7-22.5,69.6c-17.8,19-40.4,29.8-67.9,32.6c-21,2.1-40.8-0.6-59.4-8.2
		c-18.7-7.6-35.8-17.9-51.3-30.9c-15.5-13-29.5-27.7-41.7-44c-12.2-16.3-22.8-32-31.6-47.2c-6.2-10.3-12.2-17.9-18.2-22.8
		c-6-4.9-15.2-7.4-27.6-7.6l-9.5,3.2c-12,11.4-17.4,22.9-16.2,34.5c1.5,14.5,6.7,30.4,15.8,47.7c9,17.3,20.1,34.5,33.1,51.4
		c13,16.9,27.2,33,42.7,48.2c15.4,15.2,30.5,27.6,45.4,37c22.7,15.2,46.6,25.8,71.6,31.6c25,5.9,50.6,7.5,76.6,4.8
		c49.9-5,93.3-26.6,130.3-64.7l4.9-6c33.7,1,66.2,8.6,97.6,23l3.9,17.1c3.4,4.8,4.9,8.8,4.5,12.1c-0.4,3.3,2.8,6.1,9.6,8.3
		c3.6,1.6,7.6,2.6,12,2.9c29.2-68.5,53.4-139.5,72.3-212.7c-1-22.1-1.5-44.2-1.6-66.3C1381.3,193.5,1384.5,141.9,1391,90.9z"/>
</g>
</svg>
